<svg xmlns="http://www.w3.org/2000/svg" width="720" height="1280" viewBox="0 0 720 1280" role="img" aria-label="Optical study, brass, glass and graphite">
<defs><linearGradient id="top" x2="0" y2="1"><stop offset="0.785185" stop-color="#101923"/><stop offset="1" stop-color="#101923" stop-opacity="0"/></linearGradient>
<linearGradient id="bottom" x2="0" y2="1"><stop stop-color="#101923" stop-opacity="0"/><stop offset="0.200000" stop-color="#101923"/></linearGradient></defs>
<path fill="url(#top)" d="M0 0h720v405H0z"/>
<path fill="url(#bottom)" d="M0 880h720v400H0z"/>
<path stroke="#bd9c62" stroke-width="2" d="M54 42h32"/>
<path fill="#c6b28a" d="M106.312 48.182C108.412 48.182 109.686 46.936 109.686 45.368C109.686 43.842 108.776 43.184 107.6 42.68L106.13 42.036C105.318 41.686 104.422 41.294 104.422 40.272C104.422 39.292 105.22 38.676 106.424 38.676C107.348 38.676 108.118 39.04 108.762 39.614L109.336 38.928C108.678 38.256 107.656 37.71 106.424 37.71C104.632 37.71 103.33 38.816 103.33 40.328C103.33 41.784 104.464 42.498 105.374 42.903999999999996L106.872 43.562C107.824 43.982 108.594 44.332 108.594 45.452C108.594 46.53 107.726 47.23 106.34 47.23C105.234 47.23 104.17 46.754 103.456 45.984L102.84 46.684C103.694 47.608 104.87 48.182 106.312 48.182ZM113.364 48.0H118.93599999999999V47.076H114.442V37.906H113.364ZM126.49199999999999 48.182C129.222 48.182 131.168 46.138 131.168 42.903999999999996C131.168 39.698 129.222 37.71 126.49199999999999 37.71C123.776 37.71 121.83 39.684 121.83 42.903999999999996C121.83 46.138 123.776 48.182 126.49199999999999 48.182ZM126.49199999999999 47.23C124.392 47.23 122.978 45.536 122.978 42.903999999999996C122.978 40.3 124.392 38.676 126.49199999999999 38.676C128.62 38.676 130.034 40.3 130.034 42.903999999999996C130.034 45.536 128.606 47.23 126.49199999999999 47.23ZM134.80399999999997 48.0H135.88199999999998V43.87H137.618C139.82999999999998 43.87 141.29999999999998 42.89 141.29999999999998 40.818C141.29999999999998 38.662 139.844 37.906 137.56199999999998 37.906H134.80399999999997ZM137.45 42.988H135.88199999999998V38.788H137.38C139.26999999999998 38.788 140.22199999999998 39.263999999999996 140.22199999999998 40.818C140.22199999999998 42.33 139.326 42.988 137.45 42.988ZM149.13599999999997 48.182C150.59199999999998 48.182 151.61399999999998 47.65 152.48199999999997 46.74L151.89399999999998 46.124C151.152 46.852 150.31199999999998 47.23 149.206 47.23C146.95199999999997 47.23 145.52399999999997 45.564 145.52399999999997 42.918C145.52399999999997 40.314 146.98 38.676 149.248 38.676C150.17199999999997 38.676 150.98399999999998 39.025999999999996 151.57199999999997 39.6L152.20199999999997 38.942C151.57199999999997 38.269999999999996 150.50799999999998 37.71 149.23399999999998 37.71C146.40599999999998 37.71 144.37599999999998 39.712 144.37599999999998 42.946C144.37599999999998 46.194 146.39199999999997 48.182 149.13599999999997 48.182ZM155.24999999999997 48.0H156.36999999999998L157.54599999999996 44.794H161.78799999999998L162.95 48.0H164.12599999999998L160.26199999999997 37.906H159.07199999999997ZM157.86799999999997 43.912 158.46999999999997 42.246C158.89 41.098 159.22599999999997 40.132 159.63199999999998 38.802H159.688C160.10799999999998 40.104 160.55599999999998 41.364 160.86399999999998 42.246L161.46599999999998 43.912ZM167.832 48.0H168.868V42.05V39.25L169.82 41.434L172.284 46.95H173.13799999999998L175.57399999999998 41.434L176.52599999999998 39.25V42.05V48.0H177.576V37.906H176.11999999999998L173.69799999999998 43.492L172.77399999999997 45.634H172.676L171.724 43.492L169.302 37.906H167.832ZM181.912 48.0H187.792V47.076H183.004V43.141999999999996H186.896V42.218H183.004V38.816H187.624V37.906H181.912ZM191.428 48.0H192.506V43.604H194.452L196.972 48.0H198.204L195.558 43.506C197.0 43.212 197.952 42.26 197.952 40.678C197.952 38.647999999999996 196.524 37.906 194.494 37.906H191.428ZM194.298 42.722H192.506V38.788H194.298C195.964 38.788 196.86 39.292 196.86 40.678C196.86 42.05 195.95000000000002 42.722 194.298 42.722ZM201.252 48.0H202.372L203.548 44.794H207.79000000000002L208.95200000000003 48.0H210.12800000000001L206.264 37.906H205.074ZM203.87 43.912 204.472 42.246C204.89200000000002 41.098 205.228 40.132 205.63400000000001 38.802H205.69000000000003C206.11 40.104 206.55800000000002 41.364 206.866 42.246L207.46800000000002 43.912ZM226.67400000000004 50.45H227.47200000000004L231.79800000000003 37.094H230.98600000000002ZM253.25800000000004 48.182C255.98800000000006 48.182 257.934 46.138 257.934 42.903999999999996C257.934 39.698 255.98800000000006 37.71 253.25800000000004 37.71C250.54200000000003 37.71 248.59600000000003 39.684 248.59600000000003 42.903999999999996C248.59600000000003 46.138 250.54200000000003 48.182 253.25800000000004 48.182ZM253.25800000000004 47.23C251.15800000000004 47.23 249.74400000000006 45.536 249.74400000000006 42.903999999999996C249.74400000000006 40.3 251.15800000000004 38.676 253.25800000000004 38.676C255.38600000000005 38.676 256.80000000000007 40.3 256.80000000000007 42.903999999999996C256.80000000000007 45.536 255.37200000000004 47.23 253.25800000000004 47.23ZM261.7660000000001 48.0H264.62200000000007C266.65200000000004 48.0 268.03800000000007 46.992 268.03800000000007 45.018C268.0520000000001 43.73 267.35200000000003 42.862 266.17600000000004 42.624V42.568C267.0300000000001 42.26 267.52000000000004 41.42 267.52000000000004 40.37C267.52000000000004 38.634 266.26000000000005 37.906 264.42600000000004 37.906H261.7660000000001ZM264.4680000000001 47.132H262.83000000000004V43.1H264.4680000000001C266.09200000000004 43.1 267.00200000000007 43.702 267.00200000000007 45.032C267.00200000000007 46.474 266.05000000000007 47.132 264.4680000000001 47.132ZM264.21600000000007 42.246H262.83000000000004V38.774H264.25800000000004C265.72800000000007 38.774 266.48400000000004 39.236000000000004 266.48400000000004 40.51C266.48400000000004 41.588 265.8260000000001 42.246 264.21600000000007 42.246ZM273.69000000000005 48.182C275.6500000000001 48.182 276.4340000000001 46.81 276.4340000000001 45.088V37.906H275.3420000000001V44.976C275.3420000000001 46.572 274.7820000000001 47.23 273.63400000000007 47.23C272.89200000000005 47.23 272.2900000000001 46.936 271.8280000000001 46.124L271.08600000000007 46.6C271.63200000000006 47.678 272.5420000000001 48.182 273.69000000000005 48.182ZM280.5880000000001 48.0H286.4680000000001V47.076H281.6800000000001V43.141999999999996H285.5720000000001V42.218H281.6800000000001V38.816H286.30000000000007V37.906H280.5880000000001ZM294.2760000000001 48.182C295.7320000000001 48.182 296.75400000000013 47.65 297.6220000000001 46.74L297.0340000000001 46.124C296.2920000000001 46.852 295.4520000000001 47.23 294.3460000000001 47.23C292.0920000000001 47.23 290.6640000000001 45.564 290.6640000000001 42.918C290.6640000000001 40.314 292.1200000000001 38.676 294.3880000000001 38.676C295.3120000000001 38.676 296.1240000000001 39.025999999999996 296.7120000000001 39.6L297.3420000000001 38.942C296.7120000000001 38.269999999999996 295.6480000000001 37.71 294.3740000000001 37.71C291.5460000000001 37.71 289.51600000000013 39.712 289.51600000000013 42.946C289.51600000000013 46.194 291.5320000000001 48.182 294.2760000000001 48.182ZM303.5260000000001 48.0H304.6320000000001V38.816H308.0760000000001V37.906H300.0820000000001V38.816H303.5260000000001ZM318.94600000000014 48.182C321.0460000000001 48.182 322.3200000000001 46.936 322.3200000000001 45.368C322.3200000000001 43.842 321.41000000000014 43.184 320.23400000000015 42.68L318.7640000000001 42.036C317.9520000000001 41.686 317.05600000000015 41.294 317.05600000000015 40.272C317.05600000000015 39.292 317.85400000000016 38.676 319.0580000000001 38.676C319.98200000000014 38.676 320.7520000000001 39.04 321.39600000000013 39.614L321.97000000000014 38.928C321.3120000000001 38.256 320.29000000000013 37.71 319.0580000000001 37.71C317.26600000000013 37.71 315.9640000000001 38.816 315.9640000000001 40.328C315.9640000000001 41.784 317.0980000000001 42.498 318.00800000000015 42.903999999999996L319.50600000000014 43.562C320.45800000000014 43.982 321.2280000000001 44.332 321.2280000000001 45.452C321.2280000000001 46.53 320.3600000000001 47.23 318.9740000000001 47.23C317.8680000000001 47.23 316.80400000000014 46.754 316.09000000000015 45.984L315.4740000000001 46.684C316.32800000000015 47.608 317.50400000000013 48.182 318.94600000000014 48.182ZM328.36400000000015 48.0H329.47000000000014V38.816H332.9140000000001V37.906H324.92000000000013V38.816H328.36400000000015ZM339.95200000000017 48.182C342.05200000000013 48.182 343.84400000000016 47.16 343.84400000000016 43.982V37.906H342.78000000000014V43.968C342.78000000000014 46.46 341.49200000000013 47.23 339.95200000000017 47.23C338.46800000000013 47.23 337.20800000000014 46.474 337.20800000000014 43.968V37.906H336.10200000000015V43.982C336.10200000000015 47.174 337.86600000000016 48.182 339.95200000000017 48.182ZM348.08200000000016 48.0H350.7980000000002C354.18600000000015 48.0 355.8940000000002 46.054 355.8940000000002 42.903999999999996C355.8940000000002 39.768 354.17200000000014 37.906 350.75600000000014 37.906H348.08200000000016ZM350.65800000000013 47.104H349.18800000000016V38.788H350.65800000000013C353.45800000000014 38.788 354.77400000000017 40.328 354.77400000000017 42.903999999999996C354.77400000000017 45.508 353.45800000000014 47.104 350.65800000000013 47.104ZM359.83800000000014 48.0H360.91600000000017V37.906H359.83800000000014ZM365.0980000000001 48.0H370.9780000000001V47.076H366.19000000000017V43.141999999999996H370.08200000000016V42.218H366.19000000000017V38.816H370.8100000000001V37.906H365.0980000000001ZM377.42800000000017 48.182C379.52800000000013 48.182 380.80200000000013 46.936 380.80200000000013 45.368C380.80200000000013 43.842 379.89200000000017 43.184 378.7160000000002 42.68L377.24600000000015 42.036C376.43400000000014 41.686 375.5380000000002 41.294 375.5380000000002 40.272C375.5380000000002 39.292 376.3360000000002 38.676 377.54000000000013 38.676C378.46400000000017 38.676 379.23400000000015 39.04 379.87800000000016 39.614L380.45200000000017 38.928C379.79400000000015 38.256 378.77200000000016 37.71 377.54000000000013 37.71C375.74800000000016 37.71 374.44600000000014 38.816 374.44600000000014 40.328C374.44600000000014 41.784 375.58000000000015 42.498 376.4900000000002 42.903999999999996L377.98800000000017 43.562C378.94000000000017 43.982 379.71000000000015 44.332 379.71000000000015 45.452C379.71000000000015 46.53 378.84200000000016 47.23 377.45600000000013 47.23C376.35000000000014 47.23 375.2860000000002 46.754 374.5720000000002 45.984L373.95600000000013 46.684C374.8100000000002 47.608 375.98600000000016 48.182 377.42800000000017 48.182Z"/>
<path fill="#eee8da" d="M98.80000000000001 175.456C120.64 175.456 136.208 159.10399999999998 136.208 133.232C136.208 107.584 120.64 91.67999999999999 98.80000000000001 91.67999999999999C77.072 91.67999999999999 61.504 107.472 61.504 133.232C61.504 159.10399999999998 77.072 175.456 98.80000000000001 175.456ZM98.80000000000001 167.84C82.0 167.84 70.688 154.288 70.688 133.232C70.688 112.4 82.0 99.408 98.80000000000001 99.408C115.824 99.408 127.136 112.4 127.136 133.232C127.136 154.288 115.712 167.84 98.80000000000001 167.84ZM155.47199999999998 199.76H164.096V179.04L163.87199999999999 168.4C170.144 172.992 176.07999999999998 175.456 181.79199999999997 175.456C196.128 175.456 209.00799999999998 163.472 209.00799999999998 143.424C209.00799999999998 125.056 200.608 112.96000000000001 184.144 112.96000000000001C176.64 112.96000000000001 169.35999999999999 117.104 163.76 121.584H163.42399999999998L162.64 114.52799999999999H155.47199999999998ZM180.56 168.288C175.856 168.288 170.03199999999998 166.272 164.096 161.568V128.976C170.81599999999997 123.264 176.64 120.24000000000001 182.23999999999998 120.24000000000001C195.12 120.24000000000001 200.16 129.872 200.16 143.536C200.16 158.544 191.87199999999999 168.288 180.56 168.288ZM247.42399999999998 175.008C251.00799999999998 175.008 255.152 174.112 258.512 172.432L256.608 166.496C253.92 167.728 251.456 168.176 249.10399999999998 168.176C241.488 168.176 239.136 163.584 239.136 156.192V121.47200000000001H256.384V114.52799999999999H239.136V94.368L230.84799999999998 96.608V114.52799999999999H221.10399999999998V121.47200000000001H230.512V155.856C230.512 167.28 234.65599999999998 175.008 247.42399999999998 175.008ZM275.87199999999996 174.0H284.496V114.52799999999999H275.87199999999996ZM279.90399999999994 101.536C283.376 101.536 285.95199999999994 99.072 285.95199999999994 95.488C285.95199999999994 91.904 283.26399999999995 89.664 279.90399999999994 89.664C276.544 89.664 273.856 91.904 273.856 95.488C273.856 99.072 276.43199999999996 101.536 279.90399999999994 101.536ZM331.2 175.456C338.928 175.456 345.64799999999997 172.656 351.248 167.61599999999999L347.328 162.464C343.40799999999996 166.048 337.91999999999996 168.4 331.76 168.4C319.44 168.4 311.152 158.656 311.152 144.32C311.152 129.984 320.224 120.24000000000001 331.984 120.24000000000001C337.58399999999995 120.24000000000001 342.06399999999996 122.032 345.64799999999997 125.28L349.792 120.24000000000001C345.424 115.98400000000001 339.712 112.96000000000001 331.64799999999997 112.96000000000001C315.96799999999996 112.96000000000001 302.19199999999995 124.608 302.19199999999995 144.32C302.19199999999995 164.032 314.84799999999996 175.456 331.2 175.456ZM382.38399999999996 175.456C390.11199999999997 175.456 397.39199999999994 171.648 403.77599999999995 166.608H403.99999999999994L404.78399999999993 174.0H411.84V137.04C411.84 122.928 406.01599999999996 112.96000000000001 390.89599999999996 112.96000000000001C381.48799999999994 112.96000000000001 372.75199999999995 116.768 366.92799999999994 120.912L370.51199999999994 126.4C375.55199999999996 123.264 382.15999999999997 120.128 389.664 120.128C401.31199999999995 120.128 403.328 129.536 403.328 136.48C375.99999999999994 139.392 364.23999999999995 145.776 364.23999999999995 158.88C364.23999999999995 169.632 372.304 175.456 382.38399999999996 175.456ZM384.51199999999994 168.624C378.12799999999993 168.624 372.63999999999993 165.6 372.63999999999993 158.32C372.63999999999993 149.92 380.36799999999994 144.768 403.328 142.192V160.0C396.496 165.6 391.008 168.624 384.51199999999994 168.624ZM432.11199999999997 174.0H440.62399999999997V86.192H432.11199999999997Z"/>
<path fill="#eee8da" d="M83.008 279.456C97.12 279.456 105.072 271.504 105.072 262.208C105.072 251.008 95.21600000000001 247.312 85.136 243.84C77.744 241.264 71.696 239.024 71.696 233.088C71.696 228.38400000000001 75.72800000000001 223.792 84.352 223.792C90.176 223.792 94.768 225.696 98.912 228.496L103.05600000000001 223.56799999999998C98.24000000000001 219.648 91.632 216.96 84.24000000000001 216.96C71.136 216.96 63.408 224.352 63.408 233.536C63.408 243.504 72.928 247.536 82.112 250.672C89.28 253.136 96.78399999999999 256.048 96.78399999999999 262.656C96.78399999999999 268.144 92.19200000000001 272.736 83.344 272.736C74.832 272.736 69.344 270.384 63.968 266.128L59.936 271.056C65.312 276.096 73.488 279.456 83.008 279.456ZM143.152 279.008C146.736 279.008 150.88 278.112 154.24 276.432L152.33599999999998 270.496C149.648 271.728 147.184 272.176 144.832 272.176C137.216 272.176 134.864 267.584 134.864 260.192V225.472H152.112V218.528H134.864V198.368L126.576 200.608V218.528H116.832V225.472H126.24V259.856C126.24 271.28 130.384 279.008 143.152 279.008ZM189.744 279.456C198.256 279.456 204.52800000000002 274.976 210.352 268.48H210.688L211.696 278.0H218.64000000000001V218.528H210.01600000000002V261.424C203.52 268.928 198.704 272.064 191.984 272.064C183.136 272.064 179.216 266.912 179.216 255.264V218.528H170.592V256.384C170.592 271.504 176.64000000000001 279.456 189.744 279.456ZM261.76 279.456C269.824 279.456 276.656 275.2 281.36 270.608H281.696L282.48 278.0H289.536V190.192H281.024V213.6L281.36 224.128C275.2 219.312 270.384 216.96 263.44 216.96C248.88 216.96 236.112 229.05599999999998 236.112 248.32C236.112 268.144 246.192 279.456 261.76 279.456ZM263.552 272.288C251.56799999999998 272.288 244.96 262.88 244.96 248.32C244.96 234.54399999999998 253.584 224.24 264.56 224.24C270.384 224.24 275.2 226.144 281.024 231.072V263.552C275.424 269.152 269.712 272.288 263.552 272.288ZM310.144 304.208C322.128 304.208 328.512 295.136 332.544 283.824L356.512 218.528H348.11199999999997L336.01599999999996 253.024C334.224 258.4 332.32 264.672 330.528 269.712H330.08L323.69599999999997 253.024L310.032 218.528H301.072L326.272 278.56L324.704 283.04C321.792 291.664 316.864 296.928 309.92 296.928C308.464 296.928 306.56 296.592 305.216 296.144L303.2 302.752C305.328 303.76 307.568 304.208 310.144 304.208Z"/>
<path fill="#c6b28a" d="M55.815 1134.0H58.875C61.05 1134.0 62.535 1132.92 62.535 1130.805C62.55 1129.425 61.8 1128.495 60.54 1128.24V1128.18C61.455 1127.85 61.98 1126.95 61.98 1125.825C61.98 1123.965 60.63 1123.185 58.665 1123.185H55.815ZM58.71 1133.07H56.955V1128.75H58.71C60.45 1128.75 61.425 1129.395 61.425 1130.82C61.425 1132.365 60.405 1133.07 58.71 1133.07ZM58.44 1127.835H56.955V1124.115H58.485C60.06 1124.115 60.87 1124.61 60.87 1125.975C60.87 1127.13 60.165 1127.835 58.44 1127.835ZM66.795 1134.0H67.95V1129.29H70.035L72.735 1134.0H74.05499999999999L71.22 1129.185C72.765 1128.87 73.785 1127.85 73.785 1126.155C73.785 1123.98 72.255 1123.185 70.08 1123.185H66.795ZM69.87 1128.345H67.95V1124.13H69.87C71.655 1124.13 72.615 1124.67 72.615 1126.155C72.615 1127.625 71.64 1128.345 69.87 1128.345ZM77.385 1134.0H78.585L79.845 1130.565H84.39L85.63499999999999 1134.0H86.895L82.755 1123.185H81.48ZM80.19 1129.62 80.835 1127.835C81.285 1126.605 81.645 1125.57 82.08 1124.145H82.14C82.59 1125.54 83.07 1126.89 83.39999999999999 1127.835L84.045 1129.62ZM93.61500000000001 1134.195C95.86500000000001 1134.195 97.23 1132.86 97.23 1131.18C97.23 1129.545 96.25500000000001 1128.84 94.995 1128.3L93.42 1127.61C92.55000000000001 1127.235 91.59 1126.815 91.59 1125.72C91.59 1124.67 92.44500000000001 1124.01 93.735 1124.01C94.72500000000001 1124.01 95.55000000000001 1124.4 96.24000000000001 1125.015L96.855 1124.28C96.15 1123.56 95.055 1122.975 93.735 1122.975C91.815 1122.975 90.42 1124.16 90.42 1125.78C90.42 1127.34 91.635 1128.105 92.61 1128.54L94.215 1129.245C95.235 1129.695 96.06 1130.07 96.06 1131.27C96.06 1132.425 95.13000000000001 1133.175 93.64500000000001 1133.175C92.46000000000001 1133.175 91.32000000000001 1132.665 90.555 1131.84L89.89500000000001 1132.59C90.81 1133.58 92.07000000000001 1134.195 93.61500000000001 1134.195ZM104.10000000000001 1134.195C106.35000000000001 1134.195 107.715 1132.86 107.715 1131.18C107.715 1129.545 106.74000000000001 1128.84 105.48 1128.3L103.905 1127.61C103.035 1127.235 102.075 1126.815 102.075 1125.72C102.075 1124.67 102.93 1124.01 104.22 1124.01C105.21000000000001 1124.01 106.035 1124.4 106.72500000000001 1125.015L107.34 1124.28C106.635 1123.56 105.54 1122.975 104.22 1122.975C102.3 1122.975 100.905 1124.16 100.905 1125.78C100.905 1127.34 102.12 1128.105 103.095 1128.54L104.7 1129.245C105.72 1129.695 106.545 1130.07 106.545 1131.27C106.545 1132.425 105.61500000000001 1133.175 104.13000000000001 1133.175C102.94500000000001 1133.175 101.805 1132.665 101.04 1131.84L100.38000000000001 1132.59C101.295 1133.58 102.555 1134.195 104.10000000000001 1134.195ZM120.645 1136.625H121.5L126.135 1122.315H125.265ZM144.42000000000002 1134.195C145.995 1134.195 147.255 1133.67 148.005 1132.95V1128.495H144.21V1129.47H146.91V1132.485C146.37 1132.935 145.47 1133.175 144.51000000000002 1133.175C141.88500000000002 1133.175 140.38500000000002 1131.375 140.38500000000002 1128.555C140.38500000000002 1125.765 141.99 1124.01 144.54000000000002 1124.01C145.77 1124.01 146.55 1124.43 147.195 1125.03L147.85500000000002 1124.295C147.195 1123.65 146.13 1122.975 144.525 1122.975C141.375 1122.975 139.155 1125.12 139.155 1128.585C139.155 1132.065 141.315 1134.195 144.42000000000002 1134.195ZM152.445 1134.0H158.415V1133.01H153.6V1123.185H152.445ZM161.505 1134.0H162.70499999999998L163.96499999999997 1130.565H168.51L169.755 1134.0H171.015L166.875 1123.185H165.6ZM164.31 1129.62 164.95499999999998 1127.835C165.405 1126.605 165.765 1125.57 166.2 1124.145H166.26C166.70999999999998 1125.54 167.19 1126.89 167.51999999999998 1127.835L168.165 1129.62ZM177.73499999999999 1134.195C179.98499999999999 1134.195 181.34999999999997 1132.86 181.34999999999997 1131.18C181.34999999999997 1129.545 180.37499999999997 1128.84 179.11499999999998 1128.3L177.54 1127.61C176.67 1127.235 175.70999999999998 1126.815 175.70999999999998 1125.72C175.70999999999998 1124.67 176.56499999999997 1124.01 177.855 1124.01C178.84499999999997 1124.01 179.67 1124.4 180.35999999999999 1125.015L180.97499999999997 1124.28C180.26999999999998 1123.56 179.17499999999998 1122.975 177.855 1122.975C175.93499999999997 1122.975 174.54 1124.16 174.54 1125.78C174.54 1127.34 175.75499999999997 1128.105 176.73 1128.54L178.33499999999998 1129.245C179.355 1129.695 180.17999999999998 1130.07 180.17999999999998 1131.27C180.17999999999998 1132.425 179.24999999999997 1133.175 177.765 1133.175C176.57999999999998 1133.175 175.43999999999997 1132.665 174.67499999999998 1131.84L174.015 1132.59C174.92999999999998 1133.58 176.18999999999997 1134.195 177.73499999999999 1134.195ZM188.21999999999997 1134.195C190.46999999999997 1134.195 191.83499999999998 1132.86 191.83499999999998 1131.18C191.83499999999998 1129.545 190.85999999999996 1128.84 189.59999999999997 1128.3L188.02499999999998 1127.61C187.15499999999997 1127.235 186.19499999999996 1126.815 186.19499999999996 1125.72C186.19499999999996 1124.67 187.04999999999995 1124.01 188.33999999999997 1124.01C189.32999999999996 1124.01 190.15499999999997 1124.4 190.84499999999997 1125.015L191.45999999999998 1124.28C190.75499999999997 1123.56 189.65999999999997 1122.975 188.33999999999997 1122.975C186.41999999999996 1122.975 185.02499999999998 1124.16 185.02499999999998 1125.78C185.02499999999998 1127.34 186.23999999999995 1128.105 187.21499999999997 1128.54L188.81999999999996 1129.245C189.83999999999997 1129.695 190.66499999999996 1130.07 190.66499999999996 1131.27C190.66499999999996 1132.425 189.73499999999996 1133.175 188.24999999999997 1133.175C187.06499999999997 1133.175 185.92499999999995 1132.665 185.15999999999997 1131.84L184.49999999999997 1132.59C185.41499999999996 1133.58 186.67499999999995 1134.195 188.21999999999997 1134.195ZM204.76500000000001 1136.625H205.62L210.255 1122.315H209.385ZM228.54000000000005 1134.195C230.11500000000004 1134.195 231.37500000000003 1133.67 232.12500000000003 1132.95V1128.495H228.33000000000004V1129.47H231.03000000000003V1132.485C230.49000000000004 1132.935 229.59000000000003 1133.175 228.63000000000005 1133.175C226.00500000000005 1133.175 224.50500000000005 1131.375 224.50500000000005 1128.555C224.50500000000005 1125.765 226.11000000000004 1124.01 228.66000000000003 1124.01C229.89000000000004 1124.01 230.67000000000004 1124.43 231.31500000000003 1125.03L231.97500000000005 1124.295C231.31500000000003 1123.65 230.25000000000003 1122.975 228.64500000000004 1122.975C225.49500000000003 1122.975 223.27500000000003 1125.12 223.27500000000003 1128.585C223.27500000000003 1132.065 225.43500000000003 1134.195 228.54000000000005 1134.195ZM236.41500000000002 1134.0H237.57000000000002V1129.29H239.65500000000003L242.35500000000002 1134.0H243.67500000000004L240.84000000000003 1129.185C242.38500000000002 1128.87 243.40500000000003 1127.85 243.40500000000003 1126.155C243.40500000000003 1123.98 241.87500000000003 1123.185 239.70000000000002 1123.185H236.41500000000002ZM239.49000000000004 1128.345H237.57000000000002V1124.13H239.49000000000004C241.27500000000003 1124.13 242.23500000000004 1124.67 242.23500000000004 1126.155C242.23500000000004 1127.625 241.26000000000002 1128.345 239.49000000000004 1128.345ZM247.00500000000002 1134.0H248.205L249.465 1130.565H254.01000000000002L255.25500000000002 1134.0H256.51500000000004L252.37500000000003 1123.185H251.10000000000002ZM249.81000000000003 1129.62 250.455 1127.835C250.90500000000003 1126.605 251.26500000000001 1125.57 251.70000000000002 1124.145H251.76000000000002C252.21 1125.54 252.69000000000003 1126.89 253.02 1127.835L253.66500000000002 1129.62ZM260.22 1134.0H261.375V1129.575H263.235C265.605 1129.575 267.18 1128.525 267.18 1126.305C267.18 1123.995 265.62 1123.185 263.175 1123.185H260.22ZM263.055 1128.63H261.375V1124.13H262.98C265.005 1124.13 266.02500000000003 1124.64 266.02500000000003 1126.305C266.02500000000003 1127.925 265.065 1128.63 263.055 1128.63ZM271.23 1134.0H272.43V1128.795H278.37V1134.0H279.54V1123.185H278.37V1127.775H272.43V1123.185H271.23ZM284.15999999999997 1134.0H285.315V1123.185H284.15999999999997ZM292.725 1134.0H293.91V1124.16H297.6V1123.185H289.035V1124.16H292.725ZM300.975 1134.0H307.27500000000003V1133.01H302.14500000000004V1128.795H306.315V1127.805H302.14500000000004V1124.16H307.095V1123.185H300.975Z"/>
<path fill="#eee8da" d="M56.889 1173.0H58.968V1164.063H66.528V1162.308H58.968V1155.288H67.878V1153.533H56.889ZM77.247 1173.351C80.892 1173.351 84.132 1170.57 84.132 1165.845C84.132 1161.093 80.892 1158.285 77.247 1158.285C73.602 1158.285 70.362 1161.093 70.362 1165.845C70.362 1170.597 73.602 1173.351 77.247 1173.351ZM77.247 1171.65C74.466 1171.65 72.495 1169.301 72.495 1165.845C72.495 1162.416 74.466 1160.04 77.247 1160.04C80.028 1160.04 81.972 1162.416 81.972 1165.845C81.972 1169.301 80.028 1171.65 77.247 1171.65ZM88.128 1173.0H90.207V1163.604C91.287 1161.066 92.853 1160.175 94.122 1160.175C94.689 1160.175 95.03999999999999 1160.229 95.472 1160.337L95.931 1158.609C95.445 1158.366 94.959 1158.285 94.392 1158.285C92.61 1158.285 91.098 1159.473 90.126 1161.282H90.018L89.856 1158.663H88.128ZM99.495 1173.0H101.574V1162.47C103.14 1160.823 104.436 1160.094 105.62400000000001 1160.094C107.703 1160.094 108.67500000000001 1161.336 108.67500000000001 1164.117V1173.0H110.727V1162.47C112.239 1160.877 113.535 1160.094 114.804 1160.094C116.85600000000001 1160.094 117.828 1161.336 117.828 1164.117V1173.0H119.88V1163.874C119.88 1160.202 118.368 1158.285 115.37100000000001 1158.285C113.56200000000001 1158.285 111.915 1159.473 110.322 1161.093C109.70100000000001 1159.284 108.378 1158.285 106.164 1158.285C104.51700000000001 1158.285 102.897 1159.311 101.49300000000001 1160.796H101.385L101.223 1158.663H99.495ZM132.05700000000002 1173.0H134.136V1158.663H132.05700000000002ZM133.029 1155.531C133.866 1155.531 134.487 1154.937 134.487 1154.073C134.487 1153.209 133.839 1152.669 133.029 1152.669C132.219 1152.669 131.571 1153.209 131.571 1154.073C131.571 1154.937 132.192 1155.531 133.029 1155.531ZM139.56300000000002 1173.0H141.642V1162.47C143.235 1160.931 144.45000000000002 1160.094 146.07 1160.094C148.257 1160.094 149.175 1161.336 149.175 1164.117V1173.0H151.2V1163.874C151.2 1160.229 149.769 1158.285 146.637 1158.285C144.666 1158.285 143.127 1159.311 141.561 1160.796H141.453L141.291 1158.663H139.56300000000002ZM163.37699999999998 1173.0H165.456V1162.47C167.022 1160.823 168.31799999999998 1160.094 169.506 1160.094C171.58499999999998 1160.094 172.557 1161.336 172.557 1164.117V1173.0H174.60899999999998V1162.47C176.12099999999998 1160.877 177.417 1160.094 178.68599999999998 1160.094C180.738 1160.094 181.70999999999998 1161.336 181.70999999999998 1164.117V1173.0H183.762V1163.874C183.762 1160.202 182.25 1158.285 179.253 1158.285C177.444 1158.285 175.797 1159.473 174.204 1161.093C173.583 1159.284 172.26 1158.285 170.046 1158.285C168.399 1158.285 166.779 1159.311 165.375 1160.796H165.267L165.105 1158.663H163.37699999999998ZM194.39999999999998 1173.351C198.045 1173.351 201.285 1170.57 201.285 1165.845C201.285 1161.093 198.045 1158.285 194.39999999999998 1158.285C190.755 1158.285 187.515 1161.093 187.515 1165.845C187.515 1170.597 190.755 1173.351 194.39999999999998 1173.351ZM194.39999999999998 1171.65C191.619 1171.65 189.648 1169.301 189.648 1165.845C189.648 1162.416 191.619 1160.04 194.39999999999998 1160.04C197.18099999999998 1160.04 199.125 1162.416 199.125 1165.845C199.125 1169.301 197.18099999999998 1171.65 194.39999999999998 1171.65ZM210.303 1173.243C211.167 1173.243 212.166 1173.027 212.976 1172.622L212.517 1171.191C211.869 1171.488 211.27499999999998 1171.596 210.708 1171.596C208.87199999999999 1171.596 208.30499999999998 1170.489 208.30499999999998 1168.707V1160.337H212.463V1158.663H208.30499999999998V1153.803L206.307 1154.343V1158.663H203.958V1160.337H206.226V1168.626C206.226 1171.38 207.225 1173.243 210.303 1173.243ZM217.161 1173.0H219.23999999999998V1158.663H217.161ZM218.13299999999998 1155.531C218.97 1155.531 219.59099999999998 1154.937 219.59099999999998 1154.073C219.59099999999998 1153.209 218.94299999999998 1152.669 218.13299999999998 1152.669C217.32299999999998 1152.669 216.67499999999998 1153.209 216.67499999999998 1154.073C216.67499999999998 1154.937 217.296 1155.531 218.13299999999998 1155.531ZM230.31 1173.351C233.95499999999998 1173.351 237.195 1170.57 237.195 1165.845C237.195 1161.093 233.95499999999998 1158.285 230.31 1158.285C226.665 1158.285 223.42499999999998 1161.093 223.42499999999998 1165.845C223.42499999999998 1170.597 226.665 1173.351 230.31 1173.351ZM230.31 1171.65C227.529 1171.65 225.558 1169.301 225.558 1165.845C225.558 1162.416 227.529 1160.04 230.31 1160.04C233.09099999999998 1160.04 235.035 1162.416 235.035 1165.845C235.035 1169.301 233.09099999999998 1171.65 230.31 1171.65ZM241.137 1173.0H243.21599999999998V1162.47C244.809 1160.931 246.024 1160.094 247.64399999999998 1160.094C249.831 1160.094 250.749 1161.336 250.749 1164.117V1173.0H252.774V1163.874C252.774 1160.229 251.343 1158.285 248.21099999999998 1158.285C246.23999999999998 1158.285 244.701 1159.311 243.135 1160.796H243.027L242.86499999999998 1158.663H241.137ZM260.82 1171.65C260.82 1172.595 260.06399999999996 1173.351 259.11899999999997 1173.351C258.228 1173.351 257.472 1172.595 257.472 1171.65C257.472 1170.732 258.228 1170.003 259.11899999999997 1170.003C260.06399999999996 1170.003 260.82 1170.732 260.82 1171.65Z"/>
<path stroke="#b7a47b" stroke-opacity=".4" d="M54 1222H666"/>
<path fill="#c6b28a" d="M58.575 1252.195C60.93 1252.195 62.34 1250.185 62.34 1246.72C62.34 1243.24 60.93 1241.305 58.575 1241.305C56.205 1241.305 54.81 1243.24 54.81 1246.72C54.81 1250.2 56.205 1252.195 58.575 1252.195ZM58.575 1251.28C57.015 1251.28 56.01 1249.84 56.01 1246.72C56.01 1243.6 57.015 1242.22 58.575 1242.22C60.15 1242.22 61.155 1243.615 61.155 1246.72C61.155 1249.825 60.15 1251.28 58.575 1251.28ZM66.195 1252.0H67.335V1241.485H66.45C65.865 1241.815 65.085 1242.085 64.11 1242.235V1242.97H66.195Z"/>
<path fill="#c6b28a" d="M629.795 1252.195C632.045 1252.195 634.13 1250.605 634.13 1246.3C634.13 1243.0 632.525 1241.305 630.23 1241.305C628.445 1241.305 626.945 1242.685 626.945 1244.62C626.945 1246.78 628.205 1247.89 630.185 1247.89C631.235 1247.89 632.285 1247.32 633.02 1246.495C632.96 1250.05 631.49 1251.25 629.765 1251.25C629.0 1251.25 628.295 1250.905 627.845 1250.41L627.17 1251.115C627.785 1251.73 628.64 1252.195 629.795 1252.195ZM628.055 1244.62C628.055 1243.21 629.015 1242.205 630.215 1242.205C631.895 1242.205 632.81 1243.435 632.99 1245.52C632.18 1246.54 631.205 1247.005 630.365 1247.005C628.79 1247.005 628.055 1246.06 628.055 1244.62ZM638.3149999999999 1245.415C638.3149999999999 1245.94 637.895 1246.36 637.37 1246.36C636.875 1246.36 636.4549999999999 1245.94 636.4549999999999 1245.415C636.4549999999999 1244.905 636.875 1244.5 637.37 1244.5C637.895 1244.5 638.3149999999999 1244.905 638.3149999999999 1245.415ZM638.3149999999999 1251.25C638.3149999999999 1251.775 637.895 1252.195 637.37 1252.195C636.875 1252.195 636.4549999999999 1251.775 636.4549999999999 1251.25C636.4549999999999 1250.74 636.875 1250.335 637.37 1250.335C637.895 1250.335 638.3149999999999 1250.74 638.3149999999999 1251.25ZM641.9449999999999 1252.0H643.0849999999999V1241.485H642.1999999999999C641.615 1241.815 640.8349999999999 1242.085 639.86 1242.235V1242.97H641.9449999999999ZM649.985 1252.195C651.77 1252.195 653.27 1250.815 653.27 1248.865C653.27 1246.72 652.01 1245.595 650.03 1245.595C649.04 1245.595 648.005 1246.12 647.225 1246.99C647.27 1243.48 648.725 1242.25 650.465 1242.25C651.185 1242.25 651.89 1242.55 652.385 1243.09L653.045 1242.37C652.43 1241.755 651.605 1241.305 650.435 1241.305C648.185 1241.305 646.1 1242.88 646.1 1247.185C646.1 1250.485 647.705 1252.195 649.985 1252.195ZM647.255 1247.95C648.11 1246.885 649.085 1246.48 649.85 1246.48C651.455 1246.48 652.175 1247.425 652.175 1248.865C652.175 1250.29 651.23 1251.295 650.0 1251.295C648.35 1251.295 647.42 1250.05 647.255 1247.95Z"/>
</svg>
