<svg xmlns="http://www.w3.org/2000/svg" viewBox="0 0 743 646" width="743" height="646">
  <path d="M0 0 C4.7235 1.3193 8.5739 3.6426 12.7734 6.1367 C13.6854 6.6685 14.5973 7.2002 15.5369 7.748 C17.4886 8.8872 19.438 10.0304 21.3853 11.1772 C24.3869 12.9424 27.397 14.6922 30.4102 16.4375 C40.4759 22.2743 50.4949 28.1825 60.458 34.1926 C68.006 38.7362 75.6067 43.1882 83.2109 47.6367 C105.4662 60.6606 105.4662 60.6606 112.3984 64.9492 C113.4929 65.6234 114.5873 66.2976 115.7148 66.9922 C118.3984 68.9492 118.3984 68.9492 119.3984 71.9492 C119.5132 74.1456 119.5678 76.3452 119.5913 78.5444 C119.6074 79.9095 119.6234 81.2746 119.64 82.681 C119.6844 88.9143 119.7259 95.1475 119.7485 101.3809 C119.7619 104.6731 119.7898 107.9648 119.8306 111.2568 C119.8799 115.235 119.9047 119.2126 119.9118 123.1911 C119.9217 125.4407 119.956 127.6902 119.9906 129.9395 C119.9863 131.9966 119.9863 131.9966 119.9819 134.0952 C119.99 135.3008 119.9981 136.5065 120.0064 137.7486 C119.2241 141.867 117.574 143.3092 114.3984 145.9492 C112.2012 147.3997 112.2012 147.3997 109.9922 148.5625 C109.1732 149.0013 108.3543 149.44 107.5105 149.8921 C106.6485 150.3441 105.7865 150.796 104.8984 151.2617 C103.0807 152.2371 101.2643 153.2149 99.4492 154.1953 C98.1356 154.9047 98.1356 154.9047 96.7954 155.6284 C93.8281 157.2635 90.9516 159.0174 88.0859 160.8242 C82.273 164.4759 76.3224 167.8435 70.3359 171.1992 C62.9933 175.3167 55.7175 179.5147 48.5234 183.8867 C39.8278 189.1714 30.9794 194.1556 22.061 199.0544 C16.6451 202.0481 11.4561 205.1413 6.4402 208.772 C3.9856 210.1873 2.2331 210.7569 -0.6016 210.9492 C-3.1379 209.9453 -3.1379 209.9453 -5.7773 208.3867 C-7.2229 207.5475 -7.2229 207.5475 -8.6978 206.6914 C-9.656 206.1165 -10.6143 205.5416 -11.6016 204.9492 C-12.4477 204.4568 -13.2938 203.9644 -14.1655 203.457 C-16.7162 201.9699 -19.2535 200.4619 -21.7891 198.9492 C-31.0812 193.4307 -40.4042 187.9673 -49.7449 182.5312 C-50.6992 181.9757 -51.6535 181.4201 -52.6367 180.8477 C-53.476 180.3596 -54.3152 179.8715 -55.1799 179.3687 C-57.6016 177.9492 -57.6016 177.9492 -60.0994 176.2056 C-62.5154 174.7262 -62.5154 174.7262 -65.1421 175.1267 C-67.5789 175.9416 -69.6997 176.8773 -71.9531 178.1094 C-72.7903 178.565 -73.6275 179.0206 -74.49 179.49 C-75.3931 179.9922 -76.2961 180.4943 -77.2266 181.0117 C-78.1844 181.539 -79.1423 182.0663 -80.1292 182.6096 C-89.0203 187.545 -97.7583 192.7321 -106.4875 197.9468 C-113.743 202.2762 -121.0441 206.5053 -128.4141 210.6367 C-137.6949 215.8424 -146.8701 221.2079 -156.0195 226.6406 C-161.7817 230.0613 -167.5633 233.448 -173.3516 236.8242 C-174.3346 237.3979 -175.3177 237.9715 -176.3306 238.5625 C-181.7146 241.6993 -187.1081 244.8189 -192.5117 247.9219 C-193.6638 248.584 -194.8159 249.2461 -196.0029 249.9282 C-198.204 251.192 -200.4064 252.4535 -202.6104 253.7124 C-204.6353 254.8748 -206.6477 256.0594 -208.6458 257.2673 C-211.6016 258.9492 -211.6016 258.9492 -214.782 260.2581 C-218.1936 261.8412 -220.2155 263.0222 -222.6016 265.9492 C-223.9145 272.4899 -223.6087 278.8765 -223.2891 285.5117 C-222.5422 303.2433 -222.5422 303.2433 -225.0625 307.3018 C-227.1685 308.9275 -229.1549 309.9128 -231.6016 310.9492 C-233.1854 311.8859 -234.7608 312.8369 -236.3281 313.8008 C-237.9579 314.7306 -239.5908 315.6551 -241.2266 316.5742 C-246.4733 319.5441 -251.6322 322.5237 -256.6016 325.9492 C-250.0329 329.9281 -243.4098 333.7915 -236.7266 337.5742 C-227.9681 342.5553 -219.3111 347.6869 -210.6836 352.8906 C-196.6109 361.3757 -182.4147 369.6546 -168.2163 377.927 C-152.3038 387.1983 -136.4539 396.5754 -120.6016 405.9492 C-120.5817 404.794 -120.5619 403.6387 -120.5415 402.4485 C-120.4653 398.1525 -120.3766 393.8569 -120.2842 389.5613 C-120.246 387.7039 -120.2111 385.8465 -120.1797 383.989 C-120.1339 381.3153 -120.0759 378.6421 -120.0156 375.9688 C-120.0041 375.1415 -119.9925 374.3142 -119.9806 373.4619 C-119.8729 369.2314 -119.6374 365.707 -117.6016 361.9492 C-115.4766 360.2383 -115.4766 360.2383 -112.6016 358.5742 C-111.4388 357.8923 -110.2761 357.2104 -109.0781 356.5078 C-107.586 355.6548 -106.0938 354.802 -104.6016 353.9492 C-102.6088 352.7952 -100.6167 351.6402 -98.625 350.4844 C-91.9598 346.6231 -85.2811 342.7855 -78.6016 338.9492 C-66.6674 332.0882 -54.8022 325.118 -42.9661 318.0891 C-35.1125 313.4282 -27.2411 308.799 -19.3516 304.1992 C-18.3703 303.6271 -17.3891 303.055 -16.3782 302.4656 C-14.5787 301.4179 -12.7764 300.3749 -10.9707 299.3379 C-9.4914 298.4708 -8.0281 297.5753 -6.5918 296.6387 C-3.8566 294.8899 -1.9745 293.9573 1.3008 293.8867 C5.5495 295.344 9.1823 297.5708 12.9609 299.9492 C14.7515 301.0499 16.5433 302.1488 18.3359 303.2461 C19.3066 303.8423 20.2773 304.4385 21.2773 305.0527 C26.9625 308.5073 32.7154 311.8464 38.4609 315.1992 C49.1824 321.4689 59.8785 327.7795 70.5557 334.1243 C77.0543 337.9815 83.573 341.8012 90.1118 345.5898 C105.4173 354.464 105.4173 354.464 112.8359 359.1367 C113.9071 359.8109 114.9784 360.4851 116.082 361.1797 C118.3984 362.9492 118.3984 362.9492 119.3984 365.9492 C119.501 369.2919 119.5453 372.6138 119.5437 375.9568 C119.5487 377.4986 119.5487 377.4986 119.5539 379.0716 C119.5634 382.4774 119.5653 385.8832 119.5664 389.2891 C119.5696 391.6517 119.573 394.0144 119.5765 396.3771 C119.5825 401.3327 119.5843 406.2883 119.5837 411.2439 C119.5836 417.6007 119.5973 423.9573 119.6145 430.3141 C119.6256 435.1945 119.6277 440.0748 119.6271 444.9552 C119.6283 447.2992 119.6327 449.6432 119.6405 451.9872 C119.6502 455.2623 119.6474 458.5372 119.6414 461.8123 C119.647 462.7843 119.6526 463.7564 119.6584 464.758 C119.6373 469.2444 119.4398 471.8666 117.3984 475.9492 C115.1621 477.6216 115.1621 477.6216 112.3672 479.2695 C111.3379 479.8822 110.3086 480.4949 109.248 481.1262 C108.1427 481.7691 107.0373 482.4119 105.8984 483.0742 C104.7673 483.7422 103.6361 484.4102 102.4707 485.0984 C95.279 489.3263 88.0313 493.4453 80.7178 497.4583 C72.8409 501.7809 65.1233 506.3621 57.3984 510.9492 C53.7744 513.0967 50.1491 515.2421 46.5234 517.3867 C45.5957 517.9359 44.668 518.485 43.7122 519.0508 C36.8287 523.1196 29.9143 527.1323 22.9805 531.1145 C17.2409 534.4235 11.6271 537.8911 6.0625 541.4883 C3.3042 543.0009 1.5389 543.8093 -1.6016 543.9492 C-9.8757 540.9532 -17.4246 535.9177 -24.8074 531.1992 C-31.1718 527.1537 -37.685 523.3874 -44.2266 519.6367 C-52.4628 514.9118 -60.682 510.1637 -68.8516 505.3242 C-69.7373 504.7996 -70.6231 504.2749 -71.5356 503.7344 C-74.2248 502.1402 -76.9132 500.5448 -79.6016 498.9492 C-82.4849 497.2394 -85.3687 495.5303 -88.2534 493.8228 C-90.1282 492.713 -92.0022 491.602 -93.8755 490.4897 C-97.8755 488.1208 -101.8808 485.7741 -105.9531 483.5312 C-107.1984 482.8442 -108.4436 482.1571 -109.7266 481.4492 C-110.781 480.882 -111.8355 480.3148 -112.9219 479.7305 C-116.1034 477.6156 -117.6163 476.2518 -119.6016 472.9492 C-120.1557 469.21 -120.0666 465.5149 -119.9922 461.7422 C-119.9865 460.6617 -119.9809 459.5811 -119.975 458.4678 C-119.9527 455.0237 -119.9025 451.5806 -119.8516 448.1367 C-119.8315 445.7988 -119.8132 443.461 -119.7969 441.123 C-119.7528 435.398 -119.6838 429.6738 -119.6016 423.9492 C-120.6876 423.5398 -120.6876 423.5398 -121.7957 423.1221 C-124.5198 421.9834 -126.9541 420.6812 -129.4961 419.1836 C-130.4389 418.6307 -131.3817 418.0777 -132.353 417.5081 C-133.3632 416.9111 -134.3733 416.3142 -135.4141 415.6992 C-137.5898 414.4218 -139.7656 413.1445 -141.9414 411.8672 C-143.0511 411.2141 -144.1608 410.561 -145.3042 409.8882 C-150.3551 406.9181 -155.4154 403.9642 -160.4766 401.0117 C-161.4628 400.4356 -162.449 399.8595 -163.4651 399.2659 C-168.6012 396.2686 -173.7461 393.2877 -178.9062 390.332 C-191.4213 383.16 -203.8118 375.8209 -216.1199 368.2991 C-226.1702 362.1729 -236.3323 356.2594 -246.5547 350.4258 C-250.4915 348.1767 -254.3949 345.8833 -258.2734 343.5352 C-259.1467 343.0116 -260.02 342.4881 -260.9197 341.9487 C-262.5305 340.9804 -264.1348 340.001 -265.7307 339.0083 C-269.7376 336.6085 -269.7376 336.6085 -274.2773 335.9648 C-277.0573 337.1423 -279.4444 338.5481 -281.9766 340.1992 C-288.0596 344.0466 -294.259 347.6208 -300.5391 351.1367 C-308.3238 355.505 -316.0538 359.9497 -323.7266 364.5117 C-332.6518 369.8158 -341.6258 375.0237 -350.6641 380.1328 C-353.8813 381.9541 -357.0643 383.8192 -360.2266 385.7344 C-360.9473 386.1627 -361.6681 386.591 -362.4106 387.0322 C-364.333 388.1763 -366.2451 389.3375 -368.1562 390.5 C-372.4238 392.2951 -374.1634 392.2449 -378.6016 390.9492 C-382.0585 389.3142 -385.3211 387.4108 -388.6016 385.4492 C-389.5351 384.9031 -390.4686 384.3571 -391.4304 383.7944 C-394.1619 382.192 -396.8835 380.5742 -399.6016 378.9492 C-401.5139 377.8084 -401.5139 377.8084 -403.4648 376.6445 C-405.8137 375.2347 -408.16 373.8204 -410.5039 372.4023 C-415.6274 369.3182 -420.8057 366.328 -425.9766 363.3242 C-435.6046 357.7285 -445.1726 352.0393 -454.7007 346.2749 C-459.9194 343.1255 -465.1675 340.044 -470.4688 337.0352 C-478.7892 332.3023 -486.9404 327.3052 -495.1016 322.3047 C-502.3007 317.9097 -509.5534 313.6789 -516.9336 309.5957 C-519.6016 307.9492 -519.6016 307.9492 -520.6016 305.9492 C-520.7246 303.1712 -520.7874 300.4167 -520.8069 297.6375 C-520.8168 296.7713 -520.8267 295.9052 -520.8368 295.0129 C-520.8687 292.1102 -520.8934 289.2075 -520.918 286.3047 C-520.9388 284.2517 -520.96 282.1988 -520.9815 280.1458 C-521.0378 274.6206 -521.0873 269.0953 -521.1346 263.57 C-521.164 260.1497 -521.1944 256.7294 -521.2252 253.3091 C-521.3473 239.6458 -521.4556 225.9824 -521.5547 212.319 C-521.5844 208.2378 -521.6155 204.1567 -521.6484 200.0756 C-521.7292 190.0298 -521.7964 179.9842 -521.8327 169.9381 C-521.8452 166.996 -521.8627 164.054 -521.8853 161.1119 C-521.9146 157.0797 -521.925 153.0479 -521.9297 149.0156 C-521.942 147.8495 -521.9543 146.6834 -521.967 145.482 C-521.964 144.42 -521.9611 143.3581 -521.958 142.2639 C-521.9635 140.8943 -521.9635 140.8943 -521.9691 139.4971 C-521.4015 135.5621 -519.699 132.8639 -516.665 130.3352 C-515.948 129.8843 -515.231 129.4333 -514.4922 128.9688 C-513.2924 128.2101 -513.2924 128.2101 -512.0684 127.436 C-508.1981 125.1033 -504.2932 122.8465 -500.3516 120.6367 C-482.0972 110.3016 -464.0544 99.5975 -446.0039 88.9114 C-438.2379 84.3167 -430.4513 79.7576 -422.6641 75.1992 C-415.208 70.8338 -407.7548 66.4663 -400.3516 62.0117 C-399.2546 61.3543 -398.1576 60.6969 -397.0273 60.0195 C-394.3894 58.4253 -391.7653 56.8133 -389.1445 55.1914 C-387.6096 54.2562 -386.0744 53.3213 -384.5391 52.3867 C-383.8356 51.944 -383.1321 51.5013 -382.4072 51.0452 C-378.197 48.5027 -375.4832 47.497 -370.6016 47.9492 C-367.9871 49.0757 -367.9871 49.0757 -365.3633 50.6602 C-364.3876 51.2402 -363.412 51.8202 -362.4067 52.4177 C-360.8635 53.3614 -360.8635 53.3614 -359.2891 54.3242 C-358.2138 54.9669 -357.1386 55.6096 -356.0308 56.2717 C-353.8678 57.5651 -351.7079 58.8636 -349.5513 60.1675 C-345.7937 62.4372 -342.0131 64.6658 -338.2266 66.8867 C-337.2558 67.4595 -337.2558 67.4595 -336.2654 68.0439 C-329.6568 71.9383 -323.0015 75.7511 -316.3516 79.5742 C-308.8609 83.8832 -301.418 88.2351 -294.0898 92.8164 C-288.1277 96.4618 -282.0715 99.9467 -276.03 103.4585 C-268.1926 108.0156 -260.3803 112.6132 -252.5852 117.2424 C-248.1022 119.8998 -243.6056 122.5274 -239.0742 125.1016 C-237.7551 125.8534 -237.7551 125.8534 -236.4094 126.6204 C-234.7473 127.5651 -233.082 128.504 -231.4128 129.4363 C-228.0168 131.3688 -225.8007 132.6505 -223.6016 135.9492 C-223.3398 138.0519 -223.3398 138.0519 -223.3231 140.524 C-223.3063 141.9311 -223.3063 141.9311 -223.2893 143.3667 C-223.2871 144.3938 -223.2849 145.421 -223.2827 146.4792 C-223.2727 147.5623 -223.2626 148.6454 -223.2523 149.7613 C-223.2213 153.3487 -223.2044 156.936 -223.1875 160.5234 C-223.1688 163.0078 -223.1492 165.4922 -223.1288 167.9765 C-223.0774 174.5212 -223.0378 181.0658 -223.0007 187.6106 C-222.9607 194.2867 -222.9096 200.9627 -222.8594 207.6387 C-222.7625 220.7421 -222.6781 233.8456 -222.6016 246.9492 C-218.7758 244.7191 -214.9504 242.4885 -211.125 240.2578 C-210.0505 239.6314 -208.976 239.0051 -207.8689 238.3597 C-201.9793 234.9251 -196.0966 231.4797 -190.2266 228.0117 C-178.7346 221.2387 -167.1614 214.6055 -155.6016 207.9492 C-151.2261 205.4293 -146.851 202.9085 -142.4766 200.3867 C-141.4018 199.7672 -140.3271 199.1478 -139.2197 198.5095 C-130.9538 193.7405 -122.7126 188.93 -114.4797 184.1042 C-109.3529 181.1076 -104.2059 178.1536 -99.0234 175.2539 C-97.9576 174.6572 -96.8918 174.0606 -95.7937 173.4458 C-93.7472 172.3037 -91.698 171.1664 -89.6458 170.0347 C-88.7353 169.5269 -87.8248 169.0192 -86.8867 168.4961 C-86.0811 168.051 -85.2756 167.606 -84.4456 167.1475 C-82.453 166.074 -82.453 166.074 -81.6016 163.9492 C-82.1592 163.6328 -82.7168 163.3165 -83.2913 162.9905 C-92.6776 157.6595 -102.0649 152.3276 -111.3516 146.8242 C-113.1382 145.7685 -113.1382 145.7685 -114.9609 144.6914 C-117.6016 142.9492 -117.6016 142.9492 -118.6016 140.9492 C-118.7193 138.7296 -118.7714 136.5065 -118.7944 134.2839 C-118.8185 132.1762 -118.8185 132.1762 -118.8431 130.0258 C-118.8546 128.4834 -118.8652 126.9409 -118.875 125.3984 C-118.8803 124.6232 -118.8856 123.848 -118.8911 123.0492 C-118.9179 118.9457 -118.9372 114.8421 -118.9517 110.7385 C-118.9683 106.5013 -119.0131 102.2649 -119.064 98.028 C-119.0977 94.7689 -119.1092 91.5099 -119.1149 88.2507 C-119.1216 86.6889 -119.1368 85.1272 -119.1608 83.5656 C-119.1924 81.3782 -119.1895 79.1904 -119.1851 77.0027 C-119.1931 75.7585 -119.2012 74.5143 -119.2096 73.2325 C-118.4343 69.046 -116.8369 67.6208 -113.6016 64.9492 C-111.1606 63.3311 -111.1606 63.3311 -108.6094 61.9336 C-107.6652 61.4097 -106.7211 60.8857 -105.7483 60.3459 C-104.7511 59.8025 -103.754 59.2591 -102.7266 58.6992 C-100.6333 57.538 -98.5408 56.3752 -96.4492 55.2109 C-95.4375 54.6494 -94.4257 54.0878 -93.3833 53.5093 C-89.9338 51.5747 -86.5459 49.5624 -83.1641 47.5117 C-76.8685 43.6954 -70.5257 39.9668 -64.1641 36.2617 C-63.1408 35.6657 -62.1175 35.0697 -61.0632 34.4556 C-57.9097 32.6195 -54.7556 30.7843 -51.6016 28.9492 C-39.4809 21.8938 -27.367 14.8276 -15.2891 7.6992 C-14.3576 7.15 -13.426 6.6008 -12.4663 6.0349 C-11.6073 5.5271 -10.7483 5.0193 -9.8633 4.4961 C-8.7335 3.8285 -8.7335 3.8285 -7.5808 3.1475 C-2.3075 -0.045 -2.3075 -0.045 0 0 Z M98.1016 84.5117 C97.2332 85.0568 96.3649 85.6018 95.4702 86.1633 C94.0734 87.0473 94.0734 87.0473 92.6484 87.9492 C85.6678 92.3199 78.6604 96.5761 71.4805 100.6133 C65.7529 103.861 60.1172 107.267 54.4609 110.6367 C44.7173 116.4384 34.9172 122.1183 24.9963 127.6121 C15.6572 132.5197 15.6572 132.5197 7.3984 138.9492 C7.3052 140.5147 7.281 142.0843 7.2849 143.6526 C7.285 144.6535 7.2851 145.6545 7.2851 146.6858 C7.2903 147.7743 7.2955 148.8629 7.3008 149.9844 C7.3022 151.0928 7.3036 152.2011 7.3051 153.3431 C7.3107 156.8993 7.3232 160.4555 7.3359 164.0117 C7.341 166.416 7.3455 168.8203 7.3496 171.2246 C7.3607 177.1328 7.3774 183.041 7.3984 188.9492 C12.26 187.4103 16.3767 185.3503 20.7109 182.6992 C27.8614 178.405 35.1032 174.3045 42.3984 170.2617 C52.0693 164.8838 61.7218 159.4545 71.0369 153.4746 C76.3775 150.0917 81.2353 147.5438 87.3047 145.7188 C94.6464 143.1962 100.5472 141.0401 104.3984 133.9492 C108.191 117.3482 105.8418 98.7501 104.3984 81.9492 C101.6666 81.9492 100.4076 83.0525 98.1016 84.5117 Z M-103.6016 83.9492 C-103.8244 90.8175 -103.9875 97.6837 -104.0959 104.5547 C-104.1412 106.8907 -104.2025 109.2264 -104.2805 111.5615 C-104.3899 114.9232 -104.4408 118.2814 -104.4805 121.6445 C-104.5269 122.6854 -104.5734 123.7262 -104.6212 124.7986 C-104.6756 130.4078 -104.6756 130.4078 -101.6759 134.9029 C-99.3763 136.4566 -97.0917 137.7292 -94.6016 138.9492 C-93.2914 139.702 -91.9839 140.4595 -90.6797 141.2227 C-89.4164 141.9162 -88.1531 142.6097 -86.8516 143.3242 C-81.8593 146.0889 -76.9439 148.9258 -72.1016 151.9492 C-66.9487 155.1603 -61.7037 158.1515 -56.3955 161.0972 C-48.7397 165.379 -41.2416 169.9231 -33.7334 174.4573 C-31.7099 175.6789 -29.6848 176.8979 -27.6582 178.1143 C-25.5488 179.3806 -23.4436 180.6538 -21.3418 181.9326 C-20.288 182.5646 -19.2342 183.1965 -18.1484 183.8477 C-17.2032 184.4192 -16.258 184.9907 -15.2842 185.5796 C-12.6502 186.9244 -10.489 187.4362 -7.6016 187.9492 C-7.3788 181.0809 -7.2156 174.2148 -7.1072 167.3438 C-7.062 165.0078 -7.0006 162.672 -6.9226 160.3369 C-6.8132 156.9753 -6.7623 153.617 -6.7227 150.2539 C-6.6762 149.2131 -6.6298 148.1722 -6.5819 147.0998 C-6.5269 141.4757 -6.5269 141.4757 -9.5537 136.9816 C-11.845 135.4367 -14.1211 134.1618 -16.6016 132.9492 C-17.647 132.3292 -18.6924 131.7091 -19.7695 131.0703 C-20.766 130.5147 -21.7624 129.9591 -22.7891 129.3867 C-28.9221 125.9254 -34.9863 122.3613 -41.0391 118.7617 C-49.5669 113.6998 -58.1617 108.7722 -66.8115 103.9221 C-71.9857 101.0144 -77.1309 98.0652 -82.2461 95.0547 C-83.3394 94.4114 -84.4327 93.768 -85.5591 93.1052 C-87.6707 91.8591 -89.7799 90.6088 -91.8862 89.3538 C-92.8377 88.7923 -93.7892 88.2308 -94.7695 87.6523 C-95.6077 87.1538 -96.4458 86.6553 -97.3093 86.1416 C-99.7934 84.7365 -99.7934 84.7365 -103.6016 83.9492 Z M-249.7266 153.0742 C-250.6587 153.6112 -251.5909 154.1482 -252.5513 154.7014 C-260.5594 159.3224 -268.5379 163.9947 -276.5164 168.6667 C-283.3195 172.6426 -290.1655 176.5341 -297.0391 180.3867 C-306.2407 185.5462 -315.2805 190.9441 -324.3005 196.4136 C-332.1634 201.1538 -340.1448 205.6248 -348.26 209.9182 C-349.0946 210.3629 -349.9292 210.8075 -350.7891 211.2656 C-351.5045 211.6415 -352.2199 212.0173 -352.957 212.4045 C-353.8297 212.9143 -354.7024 213.424 -355.6016 213.9492 C-356.3242 214.3222 -357.0469 214.6951 -357.7914 215.0794 C-360.3331 216.5289 -362.4668 217.943 -364.6016 219.9492 C-365.5202 223.585 -365.7738 225.7972 -365.658 229.4263 C-365.664 230.38 -365.6701 231.3337 -365.6764 232.3164 C-365.6848 234.4124 -365.673 236.5086 -365.6437 238.6045 C-365.6004 242.038 -365.6205 245.4663 -365.6558 248.8998 C-365.7267 256.7056 -365.7144 264.5104 -365.6992 272.3164 C-365.6973 275.1772 -365.6959 278.0379 -365.6949 280.8987 C-365.6915 287.5951 -365.6837 294.2916 -365.6736 300.988 C-365.6623 308.628 -365.6569 316.268 -365.6519 323.9081 C-365.6415 339.5885 -365.624 355.2688 -365.6016 370.9492 C-363.8685 370.0063 -362.1357 369.0628 -360.4031 368.1191 C-359.4381 367.5938 -358.4731 367.0685 -357.4789 366.5272 C-353.2633 364.2153 -349.0856 361.8396 -344.9141 359.4492 C-344.0218 358.9386 -343.1295 358.428 -342.2102 357.9019 C-332.3246 352.2336 -322.4862 346.4846 -312.6499 340.7314 C-307.6361 337.8001 -302.6186 334.875 -297.6016 331.9492 C-295.6107 330.7878 -293.6198 329.6263 -291.6289 328.4648 C-287.5383 326.0786 -283.447 323.6933 -279.3555 321.3086 C-274.3522 318.3923 -269.35 315.4741 -264.3491 312.5537 C-262.5658 311.5123 -260.7823 310.4713 -258.9985 309.4307 C-256.6567 308.0638 -254.3164 306.6945 -251.9766 305.3242 C-251.3083 304.9346 -250.64 304.545 -249.9514 304.1436 C-248.1601 303.0924 -246.3804 302.0214 -244.6016 300.9492 C-243.5542 300.5377 -242.5069 300.1261 -241.4278 299.7021 C-238.0319 296.3944 -238.1262 295.4161 -237.88 290.8116 C-237.8626 288.1469 -237.8787 285.4818 -237.9204 282.8174 C-237.9195 281.3635 -237.9187 279.9097 -237.9178 278.4117 C-237.916 274.4261 -237.9513 270.4416 -237.9932 266.4562 C-238.0307 262.2909 -238.0342 258.1256 -238.0414 253.9601 C-238.06 246.0729 -238.1092 238.1862 -238.1694 230.2991 C-238.2365 221.3198 -238.2695 212.3405 -238.2996 203.361 C-238.3623 184.8901 -238.4679 166.4197 -238.6016 147.9492 C-242.5977 147.9492 -246.3166 151.0933 -249.7266 153.0742 Z M-505.6016 148.9492 C-507.7 151.0476 -506.7289 154.5755 -506.7371 157.378 C-506.7351 158.4525 -506.733 159.527 -506.731 160.634 C-506.7327 161.7596 -506.7345 162.8852 -506.7363 164.0449 C-506.7407 167.8008 -506.7377 171.5566 -506.7344 175.3125 C-506.735 177.9344 -506.736 180.5563 -506.7373 183.1783 C-506.7388 188.7042 -506.7366 194.2302 -506.7319 199.7561 C-506.7263 206.7585 -506.7295 213.7608 -506.7355 220.7632 C-506.7392 226.1987 -506.7379 231.6342 -506.7354 237.0698 C-506.7347 239.6451 -506.7355 242.2205 -506.7379 244.7958 C-506.743 251.9783 -506.7011 259.1582 -506.6181 266.3401 C-506.6007 270.1393 -506.6602 273.9334 -506.7216 277.732 C-506.7224 280.2617 -506.7214 282.7914 -506.7183 285.321 C-506.755 286.4863 -506.7916 287.6515 -506.8294 288.8521 C-506.7936 295.1206 -506.7936 295.1206 -503.4653 300.1886 C-500.9143 302.0012 -498.3744 303.5035 -495.6016 304.9492 C-494.0354 305.8724 -492.4712 306.7988 -490.9102 307.7305 C-489.2887 308.6408 -487.6649 309.5468 -486.0391 310.4492 C-478.1116 314.9153 -470.2687 319.5011 -462.4766 324.1992 C-444.7995 334.8478 -427.1005 345.4534 -409.1445 355.6267 C-401.9316 359.7257 -394.8179 363.9816 -387.7307 368.2939 C-384.3638 370.7757 -384.3638 370.7757 -380.6016 371.9492 C-380.3679 352.3651 -380.1916 332.7814 -380.0834 313.1962 C-380.0319 304.1023 -379.9616 295.0093 -379.8472 285.916 C-379.7475 277.9899 -379.683 270.0644 -379.6607 262.1377 C-379.6476 257.9404 -379.617 253.7449 -379.5443 249.5482 C-379.4637 244.8619 -379.4617 240.1787 -379.4663 235.4917 C-379.4124 233.4061 -379.4124 233.4061 -379.3574 231.2784 C-379.2472 224.3926 -379.2472 224.3926 -382.7303 218.8254 C-385.3008 217.262 -387.825 216.0977 -390.6016 214.9492 C-392.2642 213.9943 -393.9148 213.0179 -395.5469 212.0117 C-422.2631 196.2033 -449.1099 180.6175 -476.0823 165.2502 C-480.4059 162.7847 -484.7196 160.3037 -489.0195 157.7969 C-489.8942 157.2874 -490.769 156.7779 -491.6702 156.2529 C-493.3323 155.2834 -494.993 154.3115 -496.6521 153.3369 C-499.604 151.6151 -502.3497 150.0332 -505.6016 148.9492 Z M97.668 378.4727 C90.8959 382.6712 84.0187 386.6485 77.0859 390.5742 C65.1474 397.3656 53.2653 404.2469 41.4131 411.1875 C38.2058 413.0618 34.994 414.9281 31.7812 416.793 C30.6923 417.4257 29.6034 418.0585 28.4814 418.7104 C26.4009 419.9192 24.3195 421.1266 22.2373 422.3325 C13.6876 426.5095 13.6876 426.5095 7.3984 432.9492 C7.3052 435.726 7.2727 438.4775 7.2849 441.2544 C7.2848 442.113 7.2846 442.9716 7.2845 443.8562 C7.2852 446.7024 7.293 449.5484 7.3008 452.3945 C7.3026 454.3647 7.3041 456.3348 7.3051 458.3049 C7.3089 463.4966 7.3187 468.6883 7.3298 473.88 C7.34 479.1752 7.3446 484.4704 7.3496 489.7656 C7.3603 500.1602 7.3774 510.5547 7.3984 520.9492 C11.0232 520.285 13.6277 519.4552 16.7852 517.5352 C17.6272 517.0294 18.4693 516.5236 19.3369 516.0024 C20.2441 515.4486 21.1513 514.8948 22.0859 514.3242 C24.0734 513.1302 26.0617 511.9375 28.0508 510.7461 C29.0909 510.1215 30.131 509.497 31.2026 508.8535 C36.4861 505.7052 41.8166 502.6396 47.1484 499.5742 C48.7681 498.6416 48.7681 498.6416 50.4204 497.6902 C52.6282 496.4192 54.8362 495.1486 57.0444 493.8784 C76.7848 482.5317 76.7848 482.5317 96.4609 471.0742 C97.1636 470.6632 97.8662 470.2523 98.5901 469.8289 C101.6709 468.1293 101.6709 468.1293 104.3984 465.9492 C104.4936 463.1188 104.524 460.3129 104.512 457.4822 C104.5121 456.5945 104.5123 455.7067 104.5124 454.7921 C104.5117 451.8432 104.5039 448.8943 104.4961 445.9453 C104.4942 443.9065 104.4928 441.8677 104.4918 439.8289 C104.488 434.4514 104.4781 429.0739 104.4671 423.6964 C104.4569 418.2136 104.4523 412.7308 104.4473 407.248 C104.4365 396.4818 104.4194 385.7155 104.3984 374.9492 C102.1491 374.9492 99.4516 377.3547 97.668 378.4727 Z M-103.6016 376.9492 C-105.4631 378.8107 -104.7293 381.918 -104.731 384.4023 C-104.7341 385.7889 -104.7373 387.1754 -104.7405 388.604 C-104.7387 390.1357 -104.7367 391.6675 -104.7344 393.1992 C-104.735 394.7713 -104.736 396.3434 -104.7373 397.9155 C-104.7388 401.2279 -104.7366 404.5402 -104.7319 407.8525 C-104.7263 412.049 -104.7295 416.2454 -104.7355 420.4419 C-104.7392 423.7006 -104.7379 426.9594 -104.7354 430.2181 C-104.7344 432.5025 -104.7374 434.7869 -104.7405 437.0713 C-104.7311 441.3654 -104.6781 445.6558 -104.6016 449.9492 C-104.594 450.7207 -104.5865 451.4921 -104.5787 452.2869 C-104.5486 454.6172 -104.4836 456.9442 -104.4097 459.2734 C-104.3768 460.6459 -104.3439 462.0183 -104.31 463.4324 C-103.9027 467.0745 -103.9027 467.0745 -101.2434 469.4131 C-98.5489 471.1305 -95.7963 472.5086 -92.8926 473.8364 C-88.1971 476.1171 -83.7737 478.9096 -79.2891 481.5742 C-77.1993 482.7928 -75.1081 484.0089 -73.0156 485.2227 C-62.8689 491.1166 -52.734 497.0307 -42.6016 502.9492 C-41.7798 503.4291 -40.958 503.9089 -40.1113 504.4033 C-31.7788 509.2726 -23.495 514.1979 -15.3359 519.3555 C-12.8001 520.8335 -10.3319 521.8937 -7.6016 522.9492 C-7.2999 511.2232 -7.0692 499.4981 -6.928 487.7689 C-6.8602 482.3219 -6.7684 476.8776 -6.6208 471.4321 C-6.4793 466.1734 -6.4018 460.9173 -6.3682 455.6568 C-6.3442 453.6534 -6.2974 451.6502 -6.2271 449.6479 C-6.0203 443.5155 -6.0028 437.9026 -7.6016 431.9492 C-11.4354 427.8767 -15.4778 426.0234 -20.6016 423.9492 C-22.7782 422.7268 -24.9409 421.4789 -27.082 420.1953 C-29.3165 418.9237 -31.5522 417.6542 -33.7891 416.3867 C-36.2607 414.981 -38.7321 413.5747 -41.2031 412.168 C-43.0579 411.1122 -43.0579 411.1122 -44.9502 410.0352 C-49.4694 407.4534 -53.9733 404.8457 -58.4758 402.2351 C-80.7844 389.1259 -80.7844 389.1259 -103.6016 376.9492 Z " transform="translate(572.6015625,51.05078125)" fill="#2474d4"/>
</svg>
