<svg xmlns="http://www.w3.org/2000/svg" width="2048" height="2048" viewBox="0 0 2048 2048"><rect x="0" y="0" width="2048" height="2048" fill="#eee7d4"/><rect x="20" y="20" width="584" height="984" fill="#eee7d4"/><rect x="20" y="722" width="584" height="32" fill="#d66c40"/><rect x="20" y="764" width="584" height="6" fill="#133c3d"/><g fill="#133c3d" fill-rule="evenodd" transform="translate(77 102) scale(1.42)"><path transform="translate(0 0)" d="M0 100V0H62V15H17V43H54V58H17V100Z"/><path transform="translate(70 0)" d="M0 0H18V100H0Z"/><path transform="translate(96 0)" d="M0 100V0H62V15H17V42H54V57H17V85H62V100Z"/><path transform="translate(166 0)" d="M0 0H17V85H62V100H0Z"/><path transform="translate(236 0)" d="M0 0H28C77 0 77 100 28 100H0ZM17 15V85H28C54 85 54 15 28 15Z"/></g><rect x="80" y="272" width="462" height="3" fill="#133c3d"/><g fill="#133c3d" fill-rule="evenodd" transform="translate(82 337) scale(1.8)"><path transform="translate(0 0)" d="M32 0C-11 0-11 100 32 100C75 100 75 0 32 0ZM32 16C53 16 53 84 32 84C11 84 11 16 32 16Z"/><path transform="translate(74 0)" d="M7 22L28 0H45V100H27V26L17 36Z"/></g><path d="M80 857C217 781 332 909 544 835" fill="none" stroke="#133c3d" stroke-width="3"/><path d="M80 870C217 794 332 922 544 848" fill="none" stroke="#133c3d" stroke-width="3"/><path d="M80 883C217 807 332 935 544 861" fill="none" stroke="#133c3d" stroke-width="3"/><path d="M80 896C217 820 332 948 544 874" fill="none" stroke="#133c3d" stroke-width="3"/><path d="M80 909C217 833 332 961 544 887" fill="none" stroke="#133c3d" stroke-width="3"/><path d="M80 922C217 846 332 974 544 900" fill="none" stroke="#133c3d" stroke-width="3"/><path d="M80 935C217 859 332 987 544 913" fill="none" stroke="#133c3d" stroke-width="3"/><rect x="488" y="390" width="54" height="54" fill="#d66c40"/><rect x="612" y="20" width="384" height="984" fill="#133c3d"/><rect x="612" y="722" width="384" height="32" fill="#d66c40"/><rect x="612" y="764" width="384" height="6" fill="#a9b5a1"/><g fill="#eee7d4" fill-rule="evenodd" transform="translate(671 137) scale(2.2)"><path transform="translate(0 0)" d="M32 0C-11 0-11 100 32 100C75 100 75 0 32 0ZM32 16C53 16 53 84 32 84C11 84 11 16 32 16Z"/><path transform="translate(74 0)" d="M7 22L28 0H45V100H27V26L17 36Z"/></g><rect x="672" y="455" width="264" height="3" fill="#a9b5a1"/><rect x="672" y="497" width="264" height="3" fill="#a9b5a1"/><rect x="672" y="539" width="264" height="3" fill="#a9b5a1"/><rect x="672" y="581" width="264" height="3" fill="#a9b5a1"/><circle cx="700" cy="862" r="27" fill="#d66c40"/><rect x="1004" y="20" width="584" height="984" fill="#eee7d4"/><rect x="1004" y="722" width="584" height="32" fill="#d66c40"/><rect x="1004" y="764" width="584" height="6" fill="#133c3d"/><g fill="#133c3d" fill-rule="evenodd" transform="translate(1065 108) scale(1.52)"><path transform="translate(0 0)" d="M32 0C-11 0-11 100 32 100C75 100 75 0 32 0ZM32 16C53 16 53 84 32 84C11 84 11 16 32 16Z"/><path transform="translate(74 0)" d="M7 22L28 0H45V100H27V26L17 36Z"/></g><rect x="1064" y="337" width="464" height="28" fill="#133c3d"/><rect x="1064" y="402" width="464" height="28" fill="#133c3d"/><rect x="1064" y="467" width="464" height="28" fill="#133c3d"/><rect x="1064" y="532" width="464" height="28" fill="#133c3d"/><rect x="1064" y="840" width="76" height="76" fill="#133c3d"/><rect x="1140" y="840" width="76" height="76" fill="#d66c40"/><rect x="1216" y="840" width="76" height="76" fill="#133c3d"/><rect x="1292" y="840" width="76" height="76" fill="#d66c40"/><rect x="1368" y="840" width="76" height="76" fill="#133c3d"/><rect x="1444" y="840" width="76" height="76" fill="#d66c40"/><rect x="1596" y="20" width="384" height="984" fill="#133c3d"/><rect x="1596" y="722" width="384" height="32" fill="#d66c40"/><rect x="1596" y="764" width="384" height="6" fill="#a9b5a1"/><g fill="#eee7d4" fill-rule="evenodd" transform="translate(1661 207) scale(0.76)"><path transform="translate(0 0)" d="M0 100V0H62V15H17V43H54V58H17V100Z"/><path transform="translate(70 0)" d="M0 0H18V100H0Z"/><path transform="translate(96 0)" d="M0 100V0H62V15H17V42H54V57H17V85H62V100Z"/><path transform="translate(166 0)" d="M0 0H17V85H62V100H0Z"/><path transform="translate(236 0)" d="M0 0H28C77 0 77 100 28 100H0ZM17 15V85H28C54 85 54 15 28 15Z"/></g><rect x="1662" y="382" width="252" height="5" fill="#eee7d4"/><g fill="#eee7d4" fill-rule="evenodd" transform="translate(1666 462) scale(1.28)"><path transform="translate(0 0)" d="M32 0C-11 0-11 100 32 100C75 100 75 0 32 0ZM32 16C53 16 53 84 32 84C11 84 11 16 32 16Z"/><path transform="translate(74 0)" d="M7 22L28 0H45V100H27V26L17 36Z"/></g><rect x="20" y="1044" width="584" height="384" fill="#eee7d4"/><g fill="#133c3d" fill-rule="evenodd" transform="translate(74 1119) scale(1.72)"><path transform="translate(0 0)" d="M32 0C-11 0-11 100 32 100C75 100 75 0 32 0ZM32 16C53 16 53 84 32 84C11 84 11 16 32 16Z"/><path transform="translate(74 0)" d="M7 22L28 0H45V100H27V26L17 36Z"/></g><rect x="78" y="1342" width="468" height="5" fill="#133c3d"/><circle cx="509" cy="1145" r="35" fill="#d66c40"/><rect x="469" y="1226" width="77" height="9" fill="#d66c40"/><rect x="612" y="1044" width="584" height="384" fill="#eee7d4"/><rect x="669" y="1116" width="36" height="240" fill="#133c3d"/><rect x="724" y="1116" width="16" height="240" fill="#d66c40"/><g fill="#133c3d" fill-rule="evenodd" transform="translate(813 1145) scale(1.55)"><path transform="translate(0 0)" d="M32 0C-11 0-11 100 32 100C75 100 75 0 32 0ZM32 16C53 16 53 84 32 84C11 84 11 16 32 16Z"/><path transform="translate(74 0)" d="M7 22L28 0H45V100H27V26L17 36Z"/></g></svg>
